<?xml version="1.0" encoding="UTF-8" standalone="no"?>
<!DOCTYPE svg PUBLIC "-//W3C//DTD SVG 1.1//EN" "http://www.w3.org/Graphics/SVG/1.1/DTD/svg11.dtd">
<svg width="100%" height="100%" viewBox="0 0 148 116" version="1.1" xmlns="http://www.w3.org/2000/svg" xmlns:xlink="http://www.w3.org/1999/xlink" xml:space="preserve" xmlns:serif="http://www.serif.com/" style="fill-rule:evenodd;clip-rule:evenodd;stroke-linejoin:round;stroke-miterlimit:2;">
    <g transform="matrix(1,0,0,1,49.6344,9.581)">
        <path d="M0,71.671L71.696,71.671L35.848,9.58L0,71.671ZM88.291,81.252L-16.594,81.252L35.848,-9.581L88.291,81.252Z" style="fill:white;fill-rule:nonzero;"/>
    </g>
    <g transform="matrix(1,0,0,1,26.0509,30.77)">
        <path d="M0,50.482L12.521,50.482L29.875,20.423L23.615,9.58L0,50.482ZM18.052,60.063L-16.594,60.063L23.615,-9.581L40.938,20.423L18.052,60.063Z" style="fill:white;fill-rule:nonzero;"/>
    </g>
    <g transform="matrix(1,0,0,1,101.175,27.3896)">
        <path d="M0,18.626C-4.236,14.39 -8.317,14.529 -13.967,14.721C-15.141,14.761 -16.354,14.803 -17.608,14.803C-26.681,14.803 -30.436,6.108 -31.154,1.511L-21.693,0C-21.685,0.052 -20.762,5.222 -17.608,5.222C-16.518,5.222 -15.437,5.185 -14.293,5.146C-7.783,4.923 -0.404,4.672 6.774,11.852L0,18.626Z" style="fill:white;fill-rule:nonzero;"/>
    </g>
    <g transform="matrix(1,0,0,1,-609.309,-2320.24)">
        <path d="M610.342,2432.58L619.473,2432.58L619.473,2435.33L610.342,2435.33L610.342,2432.58ZM610.342,2426.42L618.325,2426.42L618.325,2429.17L610.342,2429.17L610.342,2426.42ZM610.342,2420.16L619.473,2420.16L619.473,2422.91L610.342,2422.91L610.342,2420.16ZM609.309,2420.16L612.168,2420.16L612.168,2435.33L609.309,2435.33L609.309,2420.16Z" style="fill:white;fill-rule:nonzero;"/>
    </g>
    <g transform="matrix(1,0,0,1,20.7315,99.7635)">
        <path d="M0,15.487C0,15.487 -0.346,15.414 -1.038,15.268C-1.73,15.122 -2.381,14.908 -2.99,14.626C-3.598,14.344 -4.143,14.005 -4.623,13.609L-3.297,11.25C-2.713,11.73 -2.039,12.1 -1.273,12.362C-0.507,12.622 0.278,12.753 1.085,12.753C2.018,12.753 2.741,12.594 3.256,12.278C3.771,11.962 4.028,11.515 4.028,10.937L4.028,10.926C4.028,10.523 3.914,10.203 3.684,9.966C3.455,9.73 3.155,9.556 2.787,9.445C2.417,9.334 1.945,9.233 1.367,9.142C1.346,9.135 1.327,9.132 1.31,9.132C1.292,9.132 1.273,9.128 1.252,9.121L1.023,9.09C0.007,8.93 -0.834,8.73 -1.502,8.489C-2.17,8.25 -2.738,7.829 -3.204,7.227C-3.669,6.625 -3.903,5.771 -3.903,4.665L-3.903,4.655C-3.903,3.674 -3.684,2.835 -3.245,2.14C-2.807,1.444 -2.17,0.913 -1.335,0.549C-0.5,0.183 0.508,0 1.691,0C2.233,0 2.788,0.063 3.355,0.188C3.922,0.314 4.477,0.494 5.02,0.731C5.562,0.967 6.077,1.253 6.564,1.587L5.354,4.008C4.77,3.604 4.159,3.291 3.522,3.069C2.886,2.846 2.275,2.735 1.691,2.735C0.814,2.735 0.136,2.879 -0.344,3.168C-0.824,3.456 -1.064,3.862 -1.064,4.383L-1.064,4.394C-1.064,4.832 -0.939,5.178 -0.688,5.432C-0.438,5.686 -0.128,5.872 0.24,5.99C0.609,6.109 1.127,6.234 1.795,6.366C1.823,6.373 1.851,6.379 1.878,6.382C1.906,6.385 1.935,6.391 1.962,6.398C2.004,6.404 2.044,6.413 2.082,6.424C2.121,6.434 2.16,6.443 2.202,6.45C3.162,6.637 3.964,6.865 4.607,7.133C5.251,7.401 5.789,7.833 6.22,8.427C6.651,9.022 6.867,9.835 6.867,10.864L6.867,10.885C6.867,11.852 6.641,12.68 6.188,13.368C5.736,14.057 5.077,14.583 4.211,14.945C3.345,15.306 2.303,15.487 1.085,15.487L0,15.487Z" style="fill:white;fill-rule:nonzero;"/>
    </g>
    <g transform="matrix(1,0,0,1,37.5084,99.7635)">
        <path d="M0,15.487C0,15.487 -0.411,15.266 -1.231,14.824C-2.052,14.383 -2.678,13.739 -3.11,12.894C-3.542,12.049 -3.757,11.028 -3.757,9.831L-3.757,5.667C-3.757,4.47 -3.542,3.449 -3.11,2.604C-2.678,1.759 -2.052,1.113 -1.231,0.668C-0.411,0.223 0.578,0 1.732,0C2.686,0 3.538,0.206 4.289,0.616C5.041,1.027 5.661,1.623 6.152,2.406C6.642,3.188 6.981,4.133 7.169,5.239L4.206,5.239C4.094,4.738 3.922,4.31 3.689,3.956C3.456,3.601 3.174,3.329 2.844,3.142C2.513,2.954 2.143,2.86 1.732,2.86C1.196,2.86 0.741,2.969 0.365,3.188C-0.01,3.408 -0.297,3.728 -0.496,4.149C-0.694,4.57 -0.793,5.076 -0.793,5.667L-0.793,9.831C-0.793,10.422 -0.694,10.926 -0.496,11.344C-0.297,11.761 -0.01,12.08 0.365,12.299C0.741,12.518 1.196,12.628 1.732,12.628C2.15,12.628 2.525,12.535 2.859,12.351C3.193,12.167 3.475,11.897 3.705,11.542C3.934,11.188 4.101,10.756 4.206,10.248L7.169,10.248C6.975,11.355 6.632,12.299 6.141,13.081C5.651,13.864 5.032,14.461 4.284,14.871C3.536,15.282 2.686,15.487 1.732,15.487L0,15.487Z" style="fill:white;fill-rule:nonzero;"/>
    </g>
    <g transform="matrix(1,0,0,1,-609.309,-2320.24)">
        <path d="M661.569,2430.14L669.552,2430.14L669.552,2432.9L661.569,2432.9L661.569,2430.14ZM664.585,2420.16L666.401,2420.16L672.203,2435.33L669.125,2435.33L665.493,2424.97L661.861,2435.33L658.783,2435.33L664.585,2420.16Z" style="fill:white;fill-rule:nonzero;"/>
    </g>
    <g transform="matrix(1,0,0,1,-609.309,-2320.24)">
        <path d="M679.629,2432.58L688.52,2432.58L688.52,2435.33L679.629,2435.33L679.629,2432.58ZM678.356,2420.16L681.215,2420.16L681.215,2435.33L678.356,2435.33L678.356,2420.16Z" style="fill:white;fill-rule:nonzero;"/>
    </g>
    <g transform="matrix(1,0,0,1,-609.309,-2320.24)">
        <path d="M696.416,2430.14L704.399,2430.14L704.399,2432.9L696.416,2432.9L696.416,2430.14ZM699.432,2420.16L701.248,2420.16L707.05,2435.33L703.972,2435.33L700.34,2424.97L696.708,2435.33L693.63,2435.33L699.432,2420.16Z" style="fill:white;fill-rule:nonzero;"/>
    </g>
    <g transform="matrix(1,0,0,1,-609.309,-2320.24)">
        <path d="M714.831,2421.4L717.69,2421.4L717.69,2435.33L714.831,2435.33L714.831,2421.4ZM710.698,2420.16L721.823,2420.16L721.823,2422.91L710.698,2422.91L710.698,2420.16Z" style="fill:white;fill-rule:nonzero;"/>
    </g>
    <g transform="matrix(1,0,0,1,124.626,102.952)">
        <path d="M0,9.111C0.39,8.892 0.69,8.58 0.903,8.177C1.115,7.774 1.221,7.307 1.221,6.778L1.221,2.333C1.221,1.804 1.115,1.338 0.903,0.935C0.69,0.531 0.39,0.22 0,0C-0.39,-0.219 -0.842,-0.328 -1.356,-0.328C-1.871,-0.328 -2.323,-0.219 -2.713,0C-3.103,0.22 -3.403,0.531 -3.616,0.935C-3.828,1.338 -3.934,1.804 -3.934,2.333L-3.934,6.778C-3.934,7.307 -3.828,7.774 -3.616,8.177C-3.403,8.58 -3.103,8.892 -2.713,9.111C-2.323,9.33 -1.871,9.44 -1.356,9.44C-0.842,9.44 -0.39,9.33 0,9.111M-4.263,11.605C-5.102,11.142 -5.75,10.488 -6.209,9.643C-6.668,8.798 -6.897,7.819 -6.897,6.705L-6.897,2.406C-6.897,1.293 -6.668,0.313 -6.209,-0.532C-5.75,-1.377 -5.102,-2.031 -4.263,-2.493C-3.425,-2.956 -2.456,-3.188 -1.356,-3.188C-0.257,-3.188 0.712,-2.956 1.55,-2.493C2.388,-2.031 3.037,-1.377 3.496,-0.532C3.955,0.313 4.185,1.293 4.185,2.406L4.185,6.705C4.185,7.819 3.955,8.798 3.496,9.643C3.037,10.488 2.388,11.142 1.55,11.605C0.712,12.068 -0.257,12.299 -1.356,12.299C-2.456,12.299 -3.425,12.068 -4.263,11.605" style="fill:white;fill-rule:nonzero;"/>
    </g>
    <g transform="matrix(1,0,0,1,140.233,106.485)">
        <path d="M0,2.034L3.058,1.554L7.148,8.608L3.685,8.608L0,2.034ZM-3.193,-0.252L2.088,-0.252C2.38,-0.252 2.637,-0.324 2.859,-0.471C3.082,-0.617 3.255,-0.825 3.376,-1.097C3.498,-1.368 3.563,-1.681 3.569,-2.036C3.569,-2.391 3.509,-2.704 3.387,-2.975C3.265,-3.247 3.093,-3.455 2.87,-3.601C2.647,-3.747 2.387,-3.82 2.088,-3.82L-3.193,-3.82L-3.193,-6.575L2.317,-6.575C3.152,-6.575 3.886,-6.388 4.519,-6.012C5.152,-5.636 5.643,-5.106 5.99,-4.421C6.338,-3.735 6.512,-2.94 6.512,-2.036C6.512,-1.132 6.338,-0.337 5.99,0.348C5.643,1.034 5.15,1.564 4.514,1.94C3.877,2.316 3.146,2.504 2.317,2.504L-3.193,2.504L-3.193,-0.252ZM-4.33,-6.575L-1.471,-6.575L-1.471,8.609L-4.33,8.609L-4.33,-6.575Z" style="fill:white;fill-rule:nonzero;"/>
    </g>
</svg>
